{
.appVersion = "1075";
copyright = "Copyright 2016 The Rounded M+ Project Authors.";
customParameters = (
{
name = vendorID;
value = "M+  ";
},
{
name = panose;
value = (
2,
11,
9,
2,
2,
2,
3,
2,
2,
7
);
},
{
name = unicodeRanges;
value = (
0,
1,
2,
3,
4,
5,
6,
7,
9,
11,
24,
29,
30,
31,
32,
33,
35,
36,
37,
38,
39,
40,
42,
43,
44,
45,
46,
47,
48,
49,
50,
54,
57,
59,
61,
62,
65,
68,
89
);
},
{
name = codePageRanges;
value = (
1252,
1250,
1251,
1253,
1254,
1255,
1257,
1258,
932,
950,
869,
866,
865,
863,
862,
861,
860,
857,
855,
852,
775,
737,
850,
437
);
},
{
name = glyphOrder;
value = (
.notdef,
space
);
}
);
date = "2015-05-28 17:04:10 +0000";
familyName = "Yaku Han RP";
fontMaster = (
{
ascender = 860;
capHeight = 700;
customParameters = (
{
name = typoAscender;
value = 860;
},
{
name = typoDescender;
value = -140;
},
{
name = typoLineGap;
value = 90;
},
{
name = winAscent;
value = 1075;
},
{
name = winDescent;
value = 320;
},
{
name = hheaAscender;
value = 1075;
},
{
name = hheaDescender;
value = -320;
},
{
name = underlinePosition;
value = -150;
}
);
descender = -140;
id = "6314C868-90E3-401C-8E0B-5829BBF19FEB";
weight = Bold;
weightValue = 900;
widthValue = 5;
xHeight = 500;
}
);
glyphs = (
{
glyphname = ellipsis;
lastChange = "2017-12-21 08:14:09 +0000";
layers = (
{
layerId = "6314C868-90E3-401C-8E0B-5829BBF19FEB";
paths = (
{
closed = 1;
nodes = (
"749 465 OFFCURVE",
"723 439 OFFCURVE",
"723 408 CURVE SMOOTH",
"723 312 LINE SMOOTH",
"723 281 OFFCURVE",
"749 255 OFFCURVE",
"780 255 CURVE SMOOTH",
"886 255 LINE SMOOTH",
"917 255 OFFCURVE",
"943 281 OFFCURVE",
"943 312 CURVE SMOOTH",
"943 408 LINE SMOOTH",
"943 439 OFFCURVE",
"917 465 OFFCURVE",
"886 465 CURVE SMOOTH",
"780 465 LINE SMOOTH"
);
},
{
closed = 1;
nodes = (
"416 465 OFFCURVE",
"390 439 OFFCURVE",
"390 408 CURVE SMOOTH",
"390 312 LINE SMOOTH",
"390 281 OFFCURVE",
"416 255 OFFCURVE",
"447 255 CURVE SMOOTH",
"553 255 LINE SMOOTH",
"584 255 OFFCURVE",
"610 281 OFFCURVE",
"610 312 CURVE SMOOTH",
"610 408 LINE SMOOTH",
"610 439 OFFCURVE",
"584 465 OFFCURVE",
"553 465 CURVE SMOOTH",
"447 465 LINE SMOOTH"
);
},
{
closed = 1;
nodes = (
"83 465 OFFCURVE",
"57 439 OFFCURVE",
"57 408 CURVE SMOOTH",
"57 312 LINE SMOOTH",
"57 281 OFFCURVE",
"83 255 OFFCURVE",
"114 255 CURVE SMOOTH",
"220 255 LINE SMOOTH",
"251 255 OFFCURVE",
"277 281 OFFCURVE",
"277 312 CURVE SMOOTH",
"277 408 LINE SMOOTH",
"277 439 OFFCURVE",
"251 465 OFFCURVE",
"220 465 CURVE SMOOTH",
"114 465 LINE SMOOTH"
);
}
);
vertWidth = 1000;
width = 1000;
}
);
note = ellipsis;
unicode = 2026;
},
{
glyphname = colon.full;
lastChange = "2017-12-21 08:19:46 +0000";
layers = (
{
layerId = "6314C868-90E3-401C-8E0B-5829BBF19FEB";
paths = (
{
closed = 1;
nodes = (
"176 260 OFFCURVE",
"150 234 OFFCURVE",
"150 203 CURVE SMOOTH",
"150 107 LINE SMOOTH",
"150 76 OFFCURVE",
"176 50 OFFCURVE",
"207 50 CURVE SMOOTH",
"313 50 LINE SMOOTH",
"344 50 OFFCURVE",
"370 76 OFFCURVE",
"370 107 CURVE SMOOTH",
"370 203 LINE SMOOTH",
"370 234 OFFCURVE",
"344 260 OFFCURVE",
"313 260 CURVE SMOOTH",
"207 260 LINE SMOOTH"
);
},
{
closed = 1;
nodes = (
"176 670 OFFCURVE",
"150 644 OFFCURVE",
"150 613 CURVE SMOOTH",
"150 517 LINE SMOOTH",
"150 486 OFFCURVE",
"176 460 OFFCURVE",
"207 460 CURVE SMOOTH",
"313 460 LINE SMOOTH",
"344 460 OFFCURVE",
"370 486 OFFCURVE",
"370 517 CURVE SMOOTH",
"370 613 LINE SMOOTH",
"370 644 OFFCURVE",
"344 670 OFFCURVE",
"313 670 CURVE SMOOTH",
"207 670 LINE SMOOTH"
);
}
);
vertWidth = 1000;
width = 520;
}
);
note = uniFF1A;
unicode = FF1A;
},
{
glyphname = exclam.full;
lastChange = "2017-12-21 08:20:15 +0000";
layers = (
{
layerId = "6314C868-90E3-401C-8E0B-5829BBF19FEB";
paths = (
{
closed = 1;
nodes = (
"173 730 OFFCURVE",
"149 704 OFFCURVE",
"150 673 CURVE SMOOTH",
"174 297 LINE SMOOTH",
"177 265 OFFCURVE",
"202 240 OFFCURVE",
"234 240 CURVE SMOOTH",
"300 240 LINE SMOOTH",
"332 240 OFFCURVE",
"357 265 OFFCURVE",
"360 297 CURVE SMOOTH",
"384 673 LINE SMOOTH",
"385 704 OFFCURVE",
"361 730 OFFCURVE",
"330 730 CURVE SMOOTH",
"204 730 LINE SMOOTH"
);
},
{
closed = 1;
nodes = (
"193 160 OFFCURVE",
"167 134 OFFCURVE",
"167 103 CURVE SMOOTH",
"167 57 LINE SMOOTH",
"167 26 OFFCURVE",
"193 0 OFFCURVE",
"224 0 CURVE SMOOTH",
"310 0 LINE SMOOTH",
"341 0 OFFCURVE",
"367 26 OFFCURVE",
"367 57 CURVE SMOOTH",
"367 103 LINE SMOOTH",
"367 134 OFFCURVE",
"341 160 OFFCURVE",
"310 160 CURVE SMOOTH",
"224 160 LINE SMOOTH"
);
}
);
vertWidth = 1000;
width = 534;
}
);
note = uniFF01;
unicode = FF01;
},
{
glyphname = question.full;
lastChange = "2017-12-21 08:20:15 +0000";
layers = (
{
layerId = "6314C868-90E3-401C-8E0B-5829BBF19FEB";
paths = (
{
closed = 1;
nodes = (
"356 740 OFFCURVE",
"275 731 OFFCURVE",
"194 714 CURVE SMOOTH",
"163 707 OFFCURVE",
"144 676 OFFCURVE",
"151 645 CURVE SMOOTH",
"162 600 LINE SMOOTH",
"169 571 OFFCURVE",
"198 553 OFFCURVE",
"229 560 CURVE SMOOTH",
"295 577 OFFCURVE",
"355 585 OFFCURVE",
"409 585 CURVE SMOOTH",
"482 585 OFFCURVE",
"519 567 OFFCURVE",
"519 530 CURVE SMOOTH",
"519 521 OFFCURVE",
"515 511 OFFCURVE",
"507 501 CURVE SMOOTH",
"491 480 OFFCURVE",
"478 471 OFFCURVE",
"443 446 CURVE SMOOTH",
"419 429 OFFCURVE",
"401 416 OFFCURVE",
"388 406 CURVE SMOOTH",
"362 385 OFFCURVE",
"320 339 OFFCURVE",
"307 296 CURVE SMOOTH",
"298 267 OFFCURVE",
"324 240 OFFCURVE",
"356 240 CURVE SMOOTH",
"422 240 LINE SMOOTH",
"449 240 OFFCURVE",
"475 258 OFFCURVE",
"500 293 CURVE SMOOTH",
"514 312 OFFCURVE",
"544 336 OFFCURVE",
"590 365 CURVE SMOOTH",
"635 394 OFFCURVE",
"652 405 OFFCURVE",
"684 438 CURVE SMOOTH",
"716 470 OFFCURVE",
"729 509 OFFCURVE",
"729 560 CURVE SMOOTH",
"729 667 OFFCURVE",
"620 740 OFFCURVE",
"439 740 CURVE SMOOTH"
);
},
{
closed = 1;
nodes = (
"315 160 OFFCURVE",
"289 134 OFFCURVE",
"289 103 CURVE SMOOTH",
"289 57 LINE SMOOTH",
"289 26 OFFCURVE",
"315 0 OFFCURVE",
"346 0 CURVE SMOOTH",
"432 0 LINE SMOOTH",
"463 0 OFFCURVE",
"489 26 OFFCURVE",
"489 57 CURVE SMOOTH",
"489 103 LINE SMOOTH",
"489 134 OFFCURVE",
"463 160 OFFCURVE",
"432 160 CURVE SMOOTH",
"346 160 LINE SMOOTH"
);
}
);
vertWidth = 1000;
width = 879;
}
);
note = uniFF1F;
unicode = FF1F;
},
{
glyphname = semicolon.full;
lastChange = "2017-12-21 08:20:15 +0000";
layers = (
{
layerId = "6314C868-90E3-401C-8E0B-5829BBF19FEB";
paths = (
{
closed = 1;
nodes = (
"225 260 OFFCURVE",
"198 236 OFFCURVE",
"191 204 CURVE SMOOTH",
"151 -4 LINE SMOOTH",
"146 -33 OFFCURVE",
"169 -60 OFFCURVE",
"198 -60 CURVE SMOOTH",
"244 -60 LINE SMOOTH",
"279 -60 OFFCURVE",
"309 -39 OFFCURVE",
"321 -7 CURVE SMOOTH",
"401 207 LINE SMOOTH",
"410 232 OFFCURVE",
"391 260 OFFCURVE",
"364 260 CURVE SMOOTH",
"258 260 LINE SMOOTH"
);
},
{
closed = 1;
nodes = (
"227 670 OFFCURVE",
"201 644 OFFCURVE",
"201 613 CURVE SMOOTH",
"201 517 LINE SMOOTH",
"201 486 OFFCURVE",
"227 460 OFFCURVE",
"258 460 CURVE SMOOTH",
"364 460 LINE SMOOTH",
"395 460 OFFCURVE",
"421 486 OFFCURVE",
"421 517 CURVE SMOOTH",
"421 613 LINE SMOOTH",
"421 644 OFFCURVE",
"395 670 OFFCURVE",
"364 670 CURVE SMOOTH",
"258 670 LINE SMOOTH"
);
}
);
vertWidth = 1000;
width = 571;
}
);
note = uniFF1B;
unicode = FF1B;
},
{
glyphname = anglebracketleft;
lastChange = "2017-12-21 08:20:48 +0000";
layers = (
{
layerId = "6314C868-90E3-401C-8E0B-5829BBF19FEB";
paths = (
{
closed = 1;
nodes = (
"621 818 OFFCURVE",
"604 845 OFFCURVE",
"579 845 CURVE SMOOTH",
"503 845 LINE SMOOTH",
"464 845 OFFCURVE",
"436 828 OFFCURVE",
"419 795 CURVE SMOOTH",
"213 410 LINE SMOOTH",
"195 377 OFFCURVE",
"195 343 OFFCURVE",
"213 310 CURVE SMOOTH",
"419 -75 LINE SMOOTH",
"436 -108 OFFCURVE",
"464 -125 OFFCURVE",
"503 -125 CURVE SMOOTH",
"579 -125 LINE SMOOTH",
"604 -125 OFFCURVE",
"621 -98 OFFCURVE",
"609 -75 CURVE SMOOTH",
"380 353 LINE",
"378 358 OFFCURVE",
"378 362 OFFCURVE",
"380 367 CURVE",
"609 795 LINE SMOOTH"
);
}
);
vertWidth = 1000;
width = 643;
}
);
note = uni3008;
unicode = 3008;
},
{
glyphname = anglebracketright;
lastChange = "2017-12-21 08:21:02 +0000";
layers = (
{
layerId = "6314C868-90E3-401C-8E0B-5829BBF19FEB";
paths = (
{
closed = 1;
nodes = (
"207 828 OFFCURVE",
"179 845 OFFCURVE",
"140 845 CURVE SMOOTH",
"64 845 LINE SMOOTH",
"39 845 OFFCURVE",
"22 818 OFFCURVE",
"34 795 CURVE SMOOTH",
"263 367 LINE",
"265 362 OFFCURVE",
"265 358 OFFCURVE",
"263 353 CURVE",
"34 -75 LINE SMOOTH",
"22 -98 OFFCURVE",
"39 -125 OFFCURVE",
"64 -125 CURVE SMOOTH",
"140 -125 LINE SMOOTH",
"179 -125 OFFCURVE",
"207 -108 OFFCURVE",
"224 -75 CURVE SMOOTH",
"430 310 LINE SMOOTH",
"448 343 OFFCURVE",
"448 377 OFFCURVE",
"430 410 CURVE SMOOTH",
"224 795 LINE SMOOTH"
);
}
);
vertWidth = 1000;
width = 643;
}
);
note = uni3009;
unicode = 3009;
},
{
glyphname = blacklenticularbracketleft;
lastChange = "2017-12-21 08:20:48 +0000";
layers = (
{
layerId = "6314C868-90E3-401C-8E0B-5829BBF19FEB";
paths = (
{
closed = 1;
nodes = (
"226 845 OFFCURVE",
"200 819 OFFCURVE",
"200 788 CURVE SMOOTH",
"200 -68 LINE SMOOTH",
"200 -99 OFFCURVE",
"226 -125 OFFCURVE",
"257 -125 CURVE SMOOTH",
"483 -125 LINE SMOOTH",
"504 -125 OFFCURVE",
"515 -100 OFFCURVE",
"502 -84 CURVE SMOOTH",
"398 39 OFFCURVE",
"340 197 OFFCURVE",
"340 360 CURVE SMOOTH",
"340 523 OFFCURVE",
"398 681 OFFCURVE",
"502 804 CURVE SMOOTH",
"515 820 OFFCURVE",
"504 845 OFFCURVE",
"483 845 CURVE SMOOTH",
"257 845 LINE SMOOTH"
);
}
);
vertWidth = 1000;
width = 538;
}
);
note = uni3010;
unicode = 3010;
},
{
glyphname = blacklenticularbracketright;
lastChange = "2017-12-21 08:21:02 +0000";
layers = (
{
layerId = "6314C868-90E3-401C-8E0B-5829BBF19FEB";
paths = (
{
closed = 1;
nodes = (
"34 845 OFFCURVE",
"23 820 OFFCURVE",
"36 804 CURVE SMOOTH",
"140 681 OFFCURVE",
"198 523 OFFCURVE",
"198 360 CURVE SMOOTH",
"198 197 OFFCURVE",
"140 39 OFFCURVE",
"36 -84 CURVE SMOOTH",
"23 -100 OFFCURVE",
"34 -125 OFFCURVE",
"55 -125 CURVE SMOOTH",
"281 -125 LINE SMOOTH",
"312 -125 OFFCURVE",
"338 -99 OFFCURVE",
"338 -68 CURVE SMOOTH",
"338 788 LINE SMOOTH",
"338 819 OFFCURVE",
"312 845 OFFCURVE",
"281 845 CURVE SMOOTH",
"55 845 LINE SMOOTH"
);
}
);
vertWidth = 1000;
width = 538;
}
);
note = uni3011;
unicode = 3011;
},
{
glyphname = braceleft.full;
lastChange = "2017-12-21 08:20:48 +0000";
layers = (
{
layerId = "6314C868-90E3-401C-8E0B-5829BBF19FEB";
paths = (
{
closed = 1;
nodes = (
"410 845 OFFCURVE",
"360 798 OFFCURVE",
"360 675 CURVE SMOOTH",
"360 540 LINE SMOOTH",
"360 456 OFFCURVE",
"337 430 OFFCURVE",
"270 430 CURVE SMOOTH",
"257 430 LINE SMOOTH",
"226 430 OFFCURVE",
"200 404 OFFCURVE",
"200 373 CURVE SMOOTH",
"200 347 LINE SMOOTH",
"200 316 OFFCURVE",
"226 290 OFFCURVE",
"257 290 CURVE SMOOTH",
"270 290 LINE SMOOTH",
"337 290 OFFCURVE",
"360 264 OFFCURVE",
"360 180 CURVE SMOOTH",
"360 45 LINE SMOOTH",
"360 -78 OFFCURVE",
"410 -125 OFFCURVE",
"530 -125 CURVE SMOOTH",
"673 -125 LINE SMOOTH",
"704 -125 OFFCURVE",
"730 -99 OFFCURVE",
"730 -68 CURVE SMOOTH",
"730 -52 LINE SMOOTH",
"730 -21 OFFCURVE",
"704 5 OFFCURVE",
"673 5 CURVE SMOOTH",
"620 5 LINE SMOOTH",
"537 5 OFFCURVE",
"530 11 OFFCURVE",
"530 95 CURVE SMOOTH",
"530 185 LINE SMOOTH",
"530 281 OFFCURVE",
"496 327 OFFCURVE",
"411 359 CURVE",
"410 359 OFFCURVE",
"410 359 OFFCURVE",
"410 360 CURVE SMOOTH",
"410 361 OFFCURVE",
"410 361 OFFCURVE",
"411 361 CURVE",
"496 393 OFFCURVE",
"530 439 OFFCURVE",
"530 535 CURVE SMOOTH",
"530 625 LINE SMOOTH",
"530 709 OFFCURVE",
"537 715 OFFCURVE",
"620 715 CURVE SMOOTH",
"673 715 LINE SMOOTH",
"704 715 OFFCURVE",
"730 741 OFFCURVE",
"730 772 CURVE SMOOTH",
"730 788 LINE SMOOTH",
"730 819 OFFCURVE",
"704 845 OFFCURVE",
"673 845 CURVE SMOOTH",
"530 845 LINE SMOOTH"
);
}
);
vertWidth = 1000;
width = 760;
}
);
note = uniFF5B;
unicode = FF5B;
},
{
glyphname = braceright.full;
lastChange = "2017-12-21 08:21:02 +0000";
layers = (
{
layerId = "6314C868-90E3-401C-8E0B-5829BBF19FEB";
paths = (
{
closed = 1;
nodes = (
"423 430 OFFCURVE",
"400 456 OFFCURVE",
"400 540 CURVE SMOOTH",
"400 675 LINE SMOOTH",
"400 798 OFFCURVE",
"350 845 OFFCURVE",
"230 845 CURVE SMOOTH",
"87 845 LINE SMOOTH",
"56 845 OFFCURVE",
"30 819 OFFCURVE",
"30 788 CURVE SMOOTH",
"30 772 LINE SMOOTH",
"30 741 OFFCURVE",
"56 715 OFFCURVE",
"87 715 CURVE SMOOTH",
"140 715 LINE SMOOTH",
"223 715 OFFCURVE",
"230 709 OFFCURVE",
"230 625 CURVE SMOOTH",
"230 535 LINE SMOOTH",
"230 439 OFFCURVE",
"264 393 OFFCURVE",
"349 361 CURVE",
"350 361 OFFCURVE",
"350 361 OFFCURVE",
"350 360 CURVE SMOOTH",
"350 359 OFFCURVE",
"350 359 OFFCURVE",
"349 359 CURVE",
"264 327 OFFCURVE",
"230 281 OFFCURVE",
"230 185 CURVE SMOOTH",
"230 95 LINE SMOOTH",
"230 11 OFFCURVE",
"223 5 OFFCURVE",
"140 5 CURVE SMOOTH",
"87 5 LINE SMOOTH",
"56 5 OFFCURVE",
"30 -21 OFFCURVE",
"30 -52 CURVE SMOOTH",
"30 -68 LINE SMOOTH",
"30 -99 OFFCURVE",
"56 -125 OFFCURVE",
"87 -125 CURVE SMOOTH",
"230 -125 LINE SMOOTH",
"350 -125 OFFCURVE",
"400 -78 OFFCURVE",
"400 45 CURVE SMOOTH",
"400 180 LINE SMOOTH",
"400 264 OFFCURVE",
"423 290 OFFCURVE",
"490 290 CURVE SMOOTH",
"503 290 LINE SMOOTH",
"534 290 OFFCURVE",
"560 316 OFFCURVE",
"560 347 CURVE SMOOTH",
"560 373 LINE SMOOTH",
"560 404 OFFCURVE",
"534 430 OFFCURVE",
"503 430 CURVE SMOOTH",
"490 430 LINE SMOOTH"
);
}
);
vertWidth = 1000;
width = 760;
}
);
note = uniFF5D;
unicode = FF5D;
},
{
glyphname = cornerbracketleft;
lastChange = "2017-12-21 08:20:48 +0000";
layers = (
{
layerId = "6314C868-90E3-401C-8E0B-5829BBF19FEB";
paths = (
{
closed = 1;
nodes = (
"226 830 OFFCURVE",
"200 804 OFFCURVE",
"200 773 CURVE SMOOTH",
"200 117 LINE SMOOTH",
"200 86 OFFCURVE",
"226 60 OFFCURVE",
"257 60 CURVE SMOOTH",
"323 60 LINE SMOOTH",
"354 60 OFFCURVE",
"380 86 OFFCURVE",
"380 117 CURVE SMOOTH",
"380 671 LINE SMOOTH",
"380 677 OFFCURVE",
"383 680 OFFCURVE",
"389 680 CURVE SMOOTH",
"593 680 LINE SMOOTH",
"624 680 OFFCURVE",
"650 706 OFFCURVE",
"650 737 CURVE SMOOTH",
"650 773 LINE SMOOTH",
"650 804 OFFCURVE",
"624 830 OFFCURVE",
"593 830 CURVE SMOOTH",
"257 830 LINE SMOOTH"
);
}
);
vertWidth = 1000;
width = 680;
}
);
note = uni300C;
unicode = 300C;
},
{
glyphname = cornerbracketright;
lastChange = "2017-12-21 08:21:02 +0000";
layers = (
{
layerId = "6314C868-90E3-401C-8E0B-5829BBF19FEB";
paths = (
{
closed = 1;
nodes = (
"326 660 OFFCURVE",
"300 634 OFFCURVE",
"300 603 CURVE SMOOTH",
"300 49 LINE SMOOTH",
"300 43 OFFCURVE",
"297 40 OFFCURVE",
"291 40 CURVE SMOOTH",
"87 40 LINE SMOOTH",
"56 40 OFFCURVE",
"30 14 OFFCURVE",
"30 -17 CURVE SMOOTH",
"30 -53 LINE SMOOTH",
"30 -84 OFFCURVE",
"56 -110 OFFCURVE",
"87 -110 CURVE SMOOTH",
"423 -110 LINE SMOOTH",
"454 -110 OFFCURVE",
"480 -84 OFFCURVE",
"480 -53 CURVE SMOOTH",
"480 603 LINE SMOOTH",
"480 634 OFFCURVE",
"454 660 OFFCURVE",
"423 660 CURVE SMOOTH",
"357 660 LINE SMOOTH"
);
}
);
vertWidth = 1000;
width = 680;
}
);
note = uni300D;
unicode = 300D;
},
{
glyphname = dblanglebracketleft;
lastChange = "2017-12-21 08:20:48 +0000";
layers = (
{
layerId = "6314C868-90E3-401C-8E0B-5829BBF19FEB";
paths = (
{
closed = 1;
nodes = (
"861 818 OFFCURVE",
"844 845 OFFCURVE",
"819 845 CURVE SMOOTH",
"753 845 LINE SMOOTH",
"714 845 OFFCURVE",
"686 828 OFFCURVE",
"669 795 CURVE SMOOTH",
"463 410 LINE SMOOTH",
"445 377 OFFCURVE",
"445 343 OFFCURVE",
"463 310 CURVE SMOOTH",
"669 -75 LINE SMOOTH",
"686 -108 OFFCURVE",
"714 -125 OFFCURVE",
"753 -125 CURVE SMOOTH",
"819 -125 LINE SMOOTH",
"844 -125 OFFCURVE",
"861 -98 OFFCURVE",
"849 -75 CURVE SMOOTH",
"620 353 LINE",
"618 358 OFFCURVE",
"618 362 OFFCURVE",
"620 367 CURVE",
"849 795 LINE SMOOTH"
);
},
{
closed = 1;
nodes = (
"368 358 OFFCURVE",
"368 362 OFFCURVE",
"370 367 CURVE",
"599 795 LINE SMOOTH",
"611 818 OFFCURVE",
"594 845 OFFCURVE",
"569 845 CURVE SMOOTH",
"503 845 LINE SMOOTH",
"464 845 OFFCURVE",
"436 828 OFFCURVE",
"419 795 CURVE SMOOTH",
"213 410 LINE SMOOTH",
"195 377 OFFCURVE",
"195 343 OFFCURVE",
"213 310 CURVE SMOOTH",
"419 -75 LINE SMOOTH",
"436 -108 OFFCURVE",
"464 -125 OFFCURVE",
"503 -125 CURVE SMOOTH",
"569 -125 LINE SMOOTH",
"594 -125 OFFCURVE",
"611 -98 OFFCURVE",
"599 -75 CURVE SMOOTH",
"370 353 LINE"
);
}
);
vertWidth = 1000;
width = 883;
}
);
note = uni300A;
unicode = 300A;
},
{
glyphname = dblanglebracketright;
lastChange = "2017-12-21 08:21:02 +0000";
layers = (
{
layerId = "6314C868-90E3-401C-8E0B-5829BBF19FEB";
paths = (
{
closed = 1;
nodes = (
"197 828 OFFCURVE",
"169 845 OFFCURVE",
"130 845 CURVE SMOOTH",
"64 845 LINE SMOOTH",
"39 845 OFFCURVE",
"22 818 OFFCURVE",
"34 795 CURVE SMOOTH",
"263 367 LINE",
"265 362 OFFCURVE",
"265 358 OFFCURVE",
"263 353 CURVE",
"34 -75 LINE SMOOTH",
"22 -98 OFFCURVE",
"39 -125 OFFCURVE",
"64 -125 CURVE SMOOTH",
"130 -125 LINE SMOOTH",
"169 -125 OFFCURVE",
"197 -108 OFFCURVE",
"214 -75 CURVE SMOOTH",
"420 310 LINE SMOOTH",
"438 343 OFFCURVE",
"438 377 OFFCURVE",
"420 410 CURVE SMOOTH",
"214 795 LINE SMOOTH"
);
},
{
closed = 1;
nodes = (
"447 828 OFFCURVE",
"419 845 OFFCURVE",
"380 845 CURVE SMOOTH",
"314 845 LINE SMOOTH",
"289 845 OFFCURVE",
"272 818 OFFCURVE",
"284 795 CURVE SMOOTH",
"513 367 LINE",
"515 362 OFFCURVE",
"515 358 OFFCURVE",
"513 353 CURVE",
"284 -75 LINE SMOOTH",
"272 -98 OFFCURVE",
"289 -125 OFFCURVE",
"314 -125 CURVE SMOOTH",
"380 -125 LINE SMOOTH",
"419 -125 OFFCURVE",
"447 -108 OFFCURVE",
"464 -75 CURVE SMOOTH",
"670 310 LINE SMOOTH",
"688 343 OFFCURVE",
"688 377 OFFCURVE",
"670 410 CURVE SMOOTH",
"464 795 LINE SMOOTH"
);
}
);
vertWidth = 1000;
width = 883;
}
);
note = uni300B;
unicode = 300B;
},
{
glyphname = tortoiseshellbracketleft;
lastChange = "2017-12-21 08:20:48 +0000";
layers = (
{
layerId = "6314C868-90E3-401C-8E0B-5829BBF19FEB";
paths = (
{
closed = 1;
nodes = (
"223 746 OFFCURVE",
"200 716 OFFCURVE",
"200 683 CURVE SMOOTH",
"200 37 LINE SMOOTH",
"200 4 OFFCURVE",
"223 -26 OFFCURVE",
"255 -34 CURVE SMOOTH",
"585 -116 LINE SMOOTH",
"613 -123 OFFCURVE",
"640 -102 OFFCURVE",
"640 -73 CURVE SMOOTH",
"640 -53 LINE SMOOTH",
"640 -20 OFFCURVE",
"617 10 OFFCURVE",
"585 18 CURVE SMOOTH",
"378 70 LINE",
"373 71 OFFCURVE",
"370 75 OFFCURVE",
"370 81 CURVE SMOOTH",
"370 640 LINE SMOOTH",
"370 645 OFFCURVE",
"373 649 OFFCURVE",
"378 650 CURVE",
"585 702 LINE SMOOTH",
"617 710 OFFCURVE",
"640 740 OFFCURVE",
"640 773 CURVE SMOOTH",
"640 793 LINE SMOOTH",
"640 822 OFFCURVE",
"613 843 OFFCURVE",
"585 836 CURVE SMOOTH",
"255 754 LINE SMOOTH"
);
}
);
vertWidth = 1000;
width = 670;
}
);
note = uni3014;
unicode = 3014;
},
{
glyphname = tortoiseshellbracketright;
lastChange = "2017-12-21 08:21:02 +0000";
layers = (
{
layerId = "6314C868-90E3-401C-8E0B-5829BBF19FEB";
paths = (
{
closed = 1;
nodes = (
"57 843 OFFCURVE",
"30 822 OFFCURVE",
"30 793 CURVE SMOOTH",
"30 773 LINE SMOOTH",
"30 740 OFFCURVE",
"53 710 OFFCURVE",
"85 702 CURVE SMOOTH",
"292 650 LINE",
"297 649 OFFCURVE",
"300 645 OFFCURVE",
"300 639 CURVE SMOOTH",
"300 80 LINE SMOOTH",
"300 75 OFFCURVE",
"297 71 OFFCURVE",
"292 70 CURVE",
"85 18 LINE SMOOTH",
"53 10 OFFCURVE",
"30 -20 OFFCURVE",
"30 -53 CURVE SMOOTH",
"30 -73 LINE SMOOTH",
"30 -102 OFFCURVE",
"57 -123 OFFCURVE",
"85 -116 CURVE SMOOTH",
"415 -34 LINE SMOOTH",
"447 -26 OFFCURVE",
"470 4 OFFCURVE",
"470 37 CURVE SMOOTH",
"470 683 LINE SMOOTH",
"470 716 OFFCURVE",
"447 746 OFFCURVE",
"415 754 CURVE SMOOTH",
"85 836 LINE SMOOTH"
);
}
);
vertWidth = 1000;
width = 670;
}
);
note = uni3015;
unicode = 3015;
},
{
glyphname = whitecornerbracketleft;
lastChange = "2017-12-21 08:20:48 +0000";
layers = (
{
layerId = "6314C868-90E3-401C-8E0B-5829BBF19FEB";
paths = (
{
closed = 1;
nodes = (
"600 653 OFFCURVE",
"597 650 OFFCURVE",
"591 650 CURVE SMOOTH",
"437 650 LINE SMOOTH",
"406 650 OFFCURVE",
"380 624 OFFCURVE",
"380 593 CURVE SMOOTH",
"380 119 LINE SMOOTH",
"380 113 OFFCURVE",
"377 110 OFFCURVE",
"371 110 CURVE SMOOTH",
"308 110 LINE SMOOTH",
"303 110 OFFCURVE",
"300 113 OFFCURVE",
"300 119 CURVE SMOOTH",
"300 722 LINE SMOOTH",
"300 727 OFFCURVE",
"303 730 OFFCURVE",
"308 730 CURVE SMOOTH",
"591 730 LINE SMOOTH",
"597 730 OFFCURVE",
"600 727 OFFCURVE",
"600 722 CURVE SMOOTH",
"600 659 LINE SMOOTH"
);
},
{
closed = 1;
nodes = (
"226 830 OFFCURVE",
"200 804 OFFCURVE",
"200 773 CURVE SMOOTH",
"200 67 LINE SMOOTH",
"200 36 OFFCURVE",
"226 10 OFFCURVE",
"257 10 CURVE SMOOTH",
"300 10 LINE",
"423 10 LINE SMOOTH",
"454 10 OFFCURVE",
"480 36 OFFCURVE",
"480 67 CURVE SMOOTH",
"480 541 LINE SMOOTH",
"480 547 OFFCURVE",
"483 550 OFFCURVE",
"489 550 CURVE SMOOTH",
"643 550 LINE SMOOTH",
"674 550 OFFCURVE",
"700 576 OFFCURVE",
"700 607 CURVE SMOOTH",
"700 773 LINE SMOOTH",
"700 804 OFFCURVE",
"674 830 OFFCURVE",
"643 830 CURVE SMOOTH",
"257 830 LINE SMOOTH"
);
}
);
vertWidth = 1000;
width = 730;
}
);
note = uni300E;
unicode = 300E;
},
{
glyphname = whitecornerbracketright;
lastChange = "2017-12-21 08:21:02 +0000";
layers = (
{
layerId = "6314C868-90E3-401C-8E0B-5829BBF19FEB";
paths = (
{
closed = 1;
nodes = (
"430 -7 OFFCURVE",
"427 -10 OFFCURVE",
"421 -10 CURVE SMOOTH",
"138 -10 LINE SMOOTH",
"133 -10 OFFCURVE",
"130 -7 OFFCURVE",
"130 -1 CURVE SMOOTH",
"130 62 LINE SMOOTH",
"130 67 OFFCURVE",
"133 70 OFFCURVE",
"138 70 CURVE SMOOTH",
"293 70 LINE SMOOTH",
"324 70 OFFCURVE",
"350 96 OFFCURVE",
"350 127 CURVE SMOOTH",
"350 602 LINE SMOOTH",
"350 607 OFFCURVE",
"353 610 OFFCURVE",
"358 610 CURVE SMOOTH",
"421 610 LINE SMOOTH",
"427 610 OFFCURVE",
"430 607 OFFCURVE",
"430 602 CURVE SMOOTH",
"430 -1 LINE SMOOTH"
);
},
{
closed = 1;
nodes = (
"307 710 LINE SMOOTH",
"276 710 OFFCURVE",
"250 684 OFFCURVE",
"250 653 CURVE SMOOTH",
"250 179 LINE SMOOTH",
"250 173 OFFCURVE",
"247 170 OFFCURVE",
"241 170 CURVE SMOOTH",
"87 170 LINE SMOOTH",
"56 170 OFFCURVE",
"30 144 OFFCURVE",
"30 113 CURVE SMOOTH",
"30 -53 LINE SMOOTH",
"30 -84 OFFCURVE",
"56 -110 OFFCURVE",
"87 -110 CURVE SMOOTH",
"473 -110 LINE SMOOTH",
"504 -110 OFFCURVE",
"530 -84 OFFCURVE",
"530 -53 CURVE SMOOTH",
"530 653 LINE SMOOTH",
"530 684 OFFCURVE",
"504 710 OFFCURVE",
"473 710 CURVE SMOOTH",
"430 710 LINE"
);
}
);
vertWidth = 1000;
width = 730;
}
);
note = uni300F;
unicode = 300F;
},
{
glyphname = whitelenticularbracketleft;
lastChange = "2017-12-21 08:20:48 +0000";
layers = (
{
layerId = "6314C868-90E3-401C-8E0B-5829BBF19FEB";
paths = (
{
closed = 1;
nodes = (
"451 -22 OFFCURVE",
"449 -25 OFFCURVE",
"443 -25 CURVE SMOOTH",
"308 -25 LINE SMOOTH",
"303 -25 OFFCURVE",
"300 -22 OFFCURVE",
"300 -16 CURVE SMOOTH",
"300 736 LINE SMOOTH",
"300 742 OFFCURVE",
"303 745 OFFCURVE",
"308 745 CURVE SMOOTH",
"443 745 LINE SMOOTH",
"449 745 OFFCURVE",
"451 742 OFFCURVE",
"448 737 CURVE",
"389 618 OFFCURVE",
"360 492 OFFCURVE",
"360 360 CURVE SMOOTH",
"360 228 OFFCURVE",
"389 102 OFFCURVE",
"448 -17 CURVE"
);
},
{
closed = 1;
nodes = (
"226 845 OFFCURVE",
"200 819 OFFCURVE",
"200 788 CURVE SMOOTH",
"200 -68 LINE SMOOTH",
"200 -99 OFFCURVE",
"226 -125 OFFCURVE",
"257 -125 CURVE SMOOTH",
"583 -125 LINE SMOOTH",
"604 -125 OFFCURVE",
"617 -101 OFFCURVE",
"604 -82 CURVE",
"508 44 OFFCURVE",
"460 191 OFFCURVE",
"460 360 CURVE SMOOTH",
"460 529 OFFCURVE",
"508 676 OFFCURVE",
"604 802 CURVE",
"617 821 OFFCURVE",
"604 845 OFFCURVE",
"583 845 CURVE SMOOTH",
"257 845 LINE SMOOTH"
);
}
);
vertWidth = 1000;
width = 639;
}
);
note = uni3016;
unicode = 3016;
},
{
glyphname = whitelenticularbracketright;
lastChange = "2017-12-21 08:21:02 +0000";
layers = (
{
layerId = "6314C868-90E3-401C-8E0B-5829BBF19FEB";
paths = (
{
closed = 1;
nodes = (
"339 -22 OFFCURVE",
"336 -25 OFFCURVE",
"330 -25 CURVE SMOOTH",
"195 -25 LINE SMOOTH",
"190 -25 OFFCURVE",
"188 -22 OFFCURVE",
"191 -17 CURVE",
"250 102 OFFCURVE",
"279 228 OFFCURVE",
"279 360 CURVE SMOOTH",
"279 492 OFFCURVE",
"250 618 OFFCURVE",
"191 737 CURVE",
"188 742 OFFCURVE",
"190 745 OFFCURVE",
"195 745 CURVE SMOOTH",
"330 745 LINE SMOOTH",
"336 745 OFFCURVE",
"339 742 OFFCURVE",
"339 736 CURVE SMOOTH",
"339 -16 LINE SMOOTH"
);
},
{
closed = 1;
nodes = (
"35 845 OFFCURVE",
"22 821 OFFCURVE",
"35 802 CURVE",
"131 676 OFFCURVE",
"179 529 OFFCURVE",
"179 360 CURVE SMOOTH",
"179 191 OFFCURVE",
"131 44 OFFCURVE",
"35 -82 CURVE",
"22 -101 OFFCURVE",
"35 -125 OFFCURVE",
"56 -125 CURVE SMOOTH",
"382 -125 LINE SMOOTH",
"413 -125 OFFCURVE",
"439 -99 OFFCURVE",
"439 -68 CURVE SMOOTH",
"439 788 LINE SMOOTH",
"439 819 OFFCURVE",
"413 845 OFFCURVE",
"382 845 CURVE SMOOTH",
"56 845 LINE SMOOTH"
);
}
);
vertWidth = 1000;
width = 639;
}
);
note = uni3017;
unicode = 3017;
},
{
glyphname = bracketleft.full;
lastChange = "2017-12-21 08:20:48 +0000";
layers = (
{
layerId = "6314C868-90E3-401C-8E0B-5829BBF19FEB";
paths = (
{
closed = 1;
nodes = (
"226 845 OFFCURVE",
"200 819 OFFCURVE",
"200 788 CURVE SMOOTH",
"200 -68 LINE SMOOTH",
"200 -99 OFFCURVE",
"226 -125 OFFCURVE",
"257 -125 CURVE SMOOTH",
"583 -125 LINE SMOOTH",
"614 -125 OFFCURVE",
"640 -99 OFFCURVE",
"640 -68 CURVE SMOOTH",
"640 -52 LINE SMOOTH",
"640 -21 OFFCURVE",
"614 5 OFFCURVE",
"583 5 CURVE SMOOTH",
"379 5 LINE SMOOTH",
"373 5 OFFCURVE",
"370 8 OFFCURVE",
"370 14 CURVE SMOOTH",
"370 706 LINE SMOOTH",
"370 712 OFFCURVE",
"373 715 OFFCURVE",
"379 715 CURVE SMOOTH",
"583 715 LINE SMOOTH",
"614 715 OFFCURVE",
"640 741 OFFCURVE",
"640 772 CURVE SMOOTH",
"640 788 LINE SMOOTH",
"640 819 OFFCURVE",
"614 845 OFFCURVE",
"583 845 CURVE SMOOTH",
"257 845 LINE SMOOTH"
);
}
);
vertWidth = 1000;
width = 670;
}
);
note = uniFF3B;
unicode = FF3B;
},
{
glyphname = bracketright.full;
lastChange = "2017-12-21 08:21:02 +0000";
layers = (
{
layerId = "6314C868-90E3-401C-8E0B-5829BBF19FEB";
paths = (
{
closed = 1;
nodes = (
"56 845 OFFCURVE",
"30 819 OFFCURVE",
"30 788 CURVE SMOOTH",
"30 772 LINE SMOOTH",
"30 741 OFFCURVE",
"56 715 OFFCURVE",
"87 715 CURVE SMOOTH",
"291 715 LINE SMOOTH",
"297 715 OFFCURVE",
"300 712 OFFCURVE",
"300 706 CURVE SMOOTH",
"300 14 LINE SMOOTH",
"300 8 OFFCURVE",
"297 5 OFFCURVE",
"291 5 CURVE SMOOTH",
"87 5 LINE SMOOTH",
"56 5 OFFCURVE",
"30 -21 OFFCURVE",
"30 -52 CURVE SMOOTH",
"30 -68 LINE SMOOTH",
"30 -99 OFFCURVE",
"56 -125 OFFCURVE",
"87 -125 CURVE SMOOTH",
"413 -125 LINE SMOOTH",
"444 -125 OFFCURVE",
"470 -99 OFFCURVE",
"470 -68 CURVE SMOOTH",
"470 788 LINE SMOOTH",
"470 819 OFFCURVE",
"444 845 OFFCURVE",
"413 845 CURVE SMOOTH",
"87 845 LINE SMOOTH"
);
}
);
vertWidth = 1000;
width = 670;
}
);
note = uniFF3D;
unicode = FF3D;
},
{
glyphname = parenleft.full;
lastChange = "2017-12-21 08:20:48 +0000";
layers = (
{
layerId = "6314C868-90E3-401C-8E0B-5829BBF19FEB";
paths = (
{
closed = 1;
nodes = (
"447 845 OFFCURVE",
"414 831 OFFCURVE",
"389 804 CURVE SMOOTH",
"273 679 OFFCURVE",
"200 519 OFFCURVE",
"200 360 CURVE SMOOTH",
"200 195 OFFCURVE",
"268 35 OFFCURVE",
"388 -86 CURVE SMOOTH",
"414 -112 OFFCURVE",
"447 -125 OFFCURVE",
"487 -125 CURVE SMOOTH",
"533 -125 LINE SMOOTH",
"554 -125 OFFCURVE",
"566 -99 OFFCURVE",
"551 -83 CURVE",
"437 48 OFFCURVE",
"380 196 OFFCURVE",
"380 360 CURVE SMOOTH",
"380 513 OFFCURVE",
"438 660 OFFCURVE",
"553 801 CURVE",
"568 818 OFFCURVE",
"554 845 OFFCURVE",
"533 845 CURVE SMOOTH",
"487 845 LINE SMOOTH"
);
}
);
vertWidth = 1000;
width = 589;
}
);
note = uniFF08;
unicode = FF08;
},
{
glyphname = parenright.full;
lastChange = "2017-12-21 08:21:02 +0000";
layers = (
{
layerId = "6314C868-90E3-401C-8E0B-5829BBF19FEB";
paths = (
{
closed = 1;
nodes = (
"35 845 OFFCURVE",
"21 818 OFFCURVE",
"36 801 CURVE",
"151 660 OFFCURVE",
"209 513 OFFCURVE",
"209 360 CURVE SMOOTH",
"209 196 OFFCURVE",
"152 48 OFFCURVE",
"38 -83 CURVE",
"23 -99 OFFCURVE",
"35 -125 OFFCURVE",
"56 -125 CURVE SMOOTH",
"102 -125 LINE SMOOTH",
"142 -125 OFFCURVE",
"175 -112 OFFCURVE",
"201 -86 CURVE SMOOTH",
"321 35 OFFCURVE",
"389 195 OFFCURVE",
"389 360 CURVE SMOOTH",
"389 519 OFFCURVE",
"316 679 OFFCURVE",
"200 804 CURVE SMOOTH",
"175 831 OFFCURVE",
"142 845 OFFCURVE",
"102 845 CURVE SMOOTH",
"56 845 LINE SMOOTH"
);
}
);
vertWidth = 1000;
width = 589;
}
);
note = uniFF09;
unicode = FF09;
},
{
glyphname = "dot-kata";
lastChange = "2017-12-21 08:21:19 +0000";
layers = (
{
layerId = "6314C868-90E3-401C-8E0B-5829BBF19FEB";
paths = (
{
closed = 1;
nodes = (
"176 470 OFFCURVE",
"150 444 OFFCURVE",
"150 413 CURVE SMOOTH",
"150 307 LINE SMOOTH",
"150 276 OFFCURVE",
"176 250 OFFCURVE",
"207 250 CURVE SMOOTH",
"313 250 LINE SMOOTH",
"344 250 OFFCURVE",
"370 276 OFFCURVE",
"370 307 CURVE SMOOTH",
"370 413 LINE SMOOTH",
"370 444 OFFCURVE",
"344 470 OFFCURVE",
"313 470 CURVE SMOOTH",
"207 470 LINE SMOOTH"
);
}
);
vertWidth = 1000;
width = 520;
}
);
note = uni30FB;
unicode = 30FB;
},
{
glyphname = "comma-han";
lastChange = "2017-12-21 08:21:36 +0000";
layers = (
{
layerId = "6314C868-90E3-401C-8E0B-5829BBF19FEB";
paths = (
{
closed = 1;
nodes = (
"167 220 OFFCURVE",
"132 225 OFFCURVE",
"107 205 CURVE SMOOTH",
"70 175 LINE SMOOTH",
"46 156 OFFCURVE",
"43 121 OFFCURVE",
"63 97 CURVE SMOOTH",
"123 24 OFFCURVE",
"159 -20 OFFCURVE",
"172 -35 CURVE",
"192 -60 OFFCURVE",
"226 -65 OFFCURVE",
"253 -48 CURVE",
"289 -22 LINE SMOOTH",
"314 -3 OFFCURVE",
"320 31 OFFCURVE",
"301 55 CURVE SMOOTH",
"243 127 OFFCURVE",
"205 174 OFFCURVE",
"187 196 CURVE SMOOTH"
);
}
);
vertWidth = 1000;
width = 512;
}
);
note = uni3001;
unicode = 3001;
},
{
glyphname = "period-han";
lastChange = "2017-12-21 08:21:45 +0000";
layers = (
{
layerId = "6314C868-90E3-401C-8E0B-5829BBF19FEB";
paths = (
{
closed = 1;
nodes = (
"171 53 OFFCURVE",
"165 65 OFFCURVE",
"165 80 CURVE SMOOTH",
"165 109 OFFCURVE",
"191 135 OFFCURVE",
"220 135 CURVE SMOOTH",
"249 135 OFFCURVE",
"275 109 OFFCURVE",
"275 80 CURVE SMOOTH",
"275 51 OFFCURVE",
"249 25 OFFCURVE",
"220 25 CURVE SMOOTH",
"205 25 OFFCURVE",
"193 31 OFFCURVE",
"182 42 CURVE SMOOTH"
);
},
{
closed = 1;
nodes = (
"67 167 OFFCURVE",
"50 127 OFFCURVE",
"50 80 CURVE SMOOTH",
"50 -13 OFFCURVE",
"127 -90 OFFCURVE",
"220 -90 CURVE SMOOTH",
"313 -90 OFFCURVE",
"390 -13 OFFCURVE",
"390 80 CURVE SMOOTH",
"390 173 OFFCURVE",
"313 250 OFFCURVE",
"220 250 CURVE SMOOTH",
"173 250 OFFCURVE",
"133 233 OFFCURVE",
"100 200 CURVE SMOOTH"
);
}
